<svg width="24" height="24" fill="none" xmlns="http://www.w3.org/2000/svg"><path fill-rule="evenodd" clip-rule="evenodd" d="M5.699 7l4.398-4.215a2.75 2.75 0 013.806 0L18.3 7h2.546a1 1 0 01.99 1.141l-1.469 10.283A3 3 0 0117.398 21H6.602a3 3 0 01-2.97-2.576L2.163 8.141A1 1 0 013.153 7h2.546zm5.436-3.132a1.25 1.25 0 011.73 0L16.133 7H7.867l3.268-3.132zM3.73 8.5l1.387 9.712A1.5 1.5 0 006.602 19.5h10.796a1.5 1.5 0 001.485-1.288L20.27 8.5H3.73z" fill="#000"/><path fill-rule="evenodd" clip-rule="evenodd" d="M8 11.25a.75.75 0 01.75.75v4a.75.75 0 01-1.5 0v-4a.75.75 0 01.75-.75zm4 0a.75.75 0 01.75.75v4a.75.75 0 01-1.5 0v-4a.75.75 0 01.75-.75zm4 0a.75.75 0 01.75.75v4a.75.75 0 01-1.5 0v-4a.75.75 0 01.75-.75z" fill="#000"/></svg>